<svg width="400" height="400" viewBox="0 0 400 400" fill="none" xmlns="http://www.w3.org/2000/svg">
<rect y="0.997513" width="400" height="399.003" rx="90" fill="url(#paint0_linear)"/>
<rect x="54.5" y="55.3928" width="290" height="289.214" rx="77.5" stroke="white" stroke-width="25"/>
<ellipse cx="283" cy="120.698" rx="20" ry="19.9501" fill="white"/>
<path d="M202.4 134.4C221.173 134.4 234.933 138.133 243.68 145.6C252.427 152.853 256.8 162.027 256.8 173.12V188.48V258.56V267.84C256.8 271.68 256.053 275.947 254.56 280.64C253.28 285.12 250.613 289.28 246.56 293.12C242.507 296.96 236.96 300.16 229.92 302.72C222.88 305.28 213.707 306.56 202.4 306.56C191.093 306.56 181.92 305.28 174.88 302.72C167.84 300.16 162.293 296.96 158.24 293.12C154.187 289.28 151.413 285.12 149.92 280.64C148.64 275.947 148 271.68 148 267.84V252.8C148 244.693 150.027 237.333 154.08 230.72C158.347 224.107 164.32 219.413 172 216.64C175.84 215.36 180.213 213.867 185.12 212.16C190.027 210.453 194.72 208.853 199.2 207.36C203.893 205.653 207.947 204.16 211.36 202.88C214.773 201.6 216.907 200.853 217.76 200.64C218.613 200.213 219.68 199.68 220.96 199.04C222.453 198.187 223.84 197.013 225.12 195.52C226.4 194.027 227.467 192.32 228.32 190.4C229.387 188.48 229.92 186.24 229.92 183.68V177.6C229.92 175.467 229.493 173.333 228.64 171.2C227.787 168.853 226.293 166.72 224.16 164.8C222.027 162.88 219.147 161.387 215.52 160.32C212.107 159.04 207.733 158.4 202.4 158.4C191.733 158.4 184.48 160.64 180.64 165.12C177.013 169.387 175.2 174.613 175.2 180.8H148V173.12C148 167.787 148.96 162.773 150.88 158.08C153.013 153.387 156.32 149.333 160.8 145.92C165.28 142.293 170.933 139.52 177.76 137.6C184.587 135.467 192.8 134.4 202.4 134.4ZM229.92 219.2C229.493 221.333 228.427 222.933 226.72 224C225.013 225.067 223.413 225.813 221.92 226.24C218.72 227.307 215.2 228.587 211.36 230.08C207.733 231.36 204.32 232.533 201.12 233.6C197.28 234.88 193.653 236.16 190.24 237.44C187.68 238.507 185.227 240 182.88 241.92C180.96 243.627 179.147 245.867 177.44 248.64C175.947 251.2 175.2 254.507 175.2 258.56C175.2 266.667 177.12 272.747 180.96 276.8C184.8 280.64 191.947 282.56 202.4 282.56C213.067 282.56 220.32 280.533 224.16 276.48C228 272.213 229.92 266.24 229.92 258.56V219.2Z" fill="white"/>
<defs>
<linearGradient id="paint0_linear" x1="26" y1="25.4364" x2="375.611" y2="381.421" gradientUnits="userSpaceOnUse">
<stop stop-color="#405DE6"/>
<stop offset="0.115642" stop-color="#5851DB"/>
<stop offset="0.223764" stop-color="#833AB4"/>
<stop offset="0.352541" stop-color="#C13584"/>
<stop offset="0.461164" stop-color="#E1306C"/>
<stop offset="0.573256" stop-color="#FD1D1D"/>
<stop offset="0.686856" stop-color="#F56040"/>
<stop offset="0.792439" stop-color="#F77737"/>
<stop offset="0.903436" stop-color="#FCAF45"/>
<stop offset="1" stop-color="#FFDC80"/>
</linearGradient>
</defs>
</svg>
